<svg width="220" height="40" viewBox="0 0 220 40" fill="none" xmlns="http://www.w3.org/2000/svg">
<rect width="40" height="40" fill="#D9D9D9"/>
<path d="M25.5867 6.6665H14.4133C9.56 6.6665 6.66667 9.55984 6.66667 14.4132V25.5732C6.66667 30.4398 9.56 33.3332 14.4133 33.3332H25.5733C30.4267 33.3332 33.32 30.4398 33.32 25.5865V14.4132C33.3333 9.55984 30.44 6.6665 25.5867 6.6665ZM20 25.1732C17.1467 25.1732 14.8267 22.8532 14.8267 19.9998C14.8267 17.1465 17.1467 14.8265 20 14.8265C22.8533 14.8265 25.1733 17.1465 25.1733 19.9998C25.1733 22.8532 22.8533 25.1732 20 25.1732ZM27.8933 13.1732C27.8267 13.3332 27.7333 13.4798 27.6133 13.6132C27.48 13.7332 27.3333 13.8265 27.1733 13.8932C26.9307 13.9962 26.6628 14.0245 26.404 13.9747C26.1451 13.9248 25.907 13.7989 25.72 13.6132C25.6 13.4798 25.5067 13.3332 25.44 13.1732C25.3715 13.0129 25.3353 12.8408 25.3333 12.6665C25.3333 12.4932 25.3733 12.3198 25.44 12.1598C25.5067 11.9865 25.6 11.8532 25.72 11.7198C26.0267 11.4132 26.4933 11.2665 26.92 11.3598C27.0133 11.3732 27.0933 11.3998 27.1733 11.4398C27.2533 11.4665 27.3333 11.5065 27.4133 11.5598C27.48 11.5998 27.5467 11.6665 27.6133 11.7198C27.7333 11.8532 27.8267 11.9865 27.8933 12.1598C27.96 12.3198 28 12.4932 28 12.6665C28 12.8398 27.96 13.0132 27.8933 13.1732Z" fill="#1E1E1E"/>
<rect x="60" width="40" height="40" fill="#D9D9D9"/>
<path fill-rule="evenodd" clip-rule="evenodd" d="M85.16 31.8772C85.2 32.0905 85.08 32.3172 84.88 32.3972C83.3733 32.9972 81.72 33.3172 80.0133 33.3172C77.0667 33.3172 74.3467 32.3705 72.1467 30.7438C71.96 30.6105 71.9067 30.3438 72.0267 30.1438C72.76 28.8372 75.6267 24.6372 81.96 22.2905C82.2 22.1972 82.4667 22.3172 82.5467 22.5572C84.1333 26.8105 84.88 30.4105 85.16 31.8772ZM93.08 22.5012C92.4685 25.7263 90.6762 28.6074 88.0533 30.5812C87.7733 30.7945 87.3733 30.6345 87.3067 30.3012C87.0267 28.8612 86.3467 25.7545 85.04 22.0612C84.9467 21.7812 85.1333 21.4745 85.4267 21.4345C88.7467 21.0345 91.6533 21.6745 92.7467 21.9678C92.9733 22.0478 93.12 22.2745 93.08 22.5012ZM92.7733 19.7425C91.4133 19.5025 87.9467 18.9958 84.4 19.3825C84.1867 19.4092 84 19.2892 83.9067 19.0892C83.8533 18.9692 83.8133 18.8492 83.76 18.7292C83.5467 18.2358 83.32 17.7292 83.0933 17.2358C82.9733 16.9958 83.0933 16.7025 83.3333 16.5958C87.0667 14.9825 89.1467 12.9025 89.96 11.9692C90.16 11.7425 90.5067 11.7558 90.6933 11.9958C92.2669 14.0905 93.1813 16.6063 93.32 19.2225C93.3333 19.5558 93.0667 19.7958 92.7733 19.7425ZM88.5733 10.3732C87.88 11.2132 85.9333 13.2132 82.24 14.6798C82.1331 14.723 82.0141 14.7251 81.9057 14.6857C81.7974 14.6463 81.7075 14.5682 81.6533 14.4665C80.3316 12.0967 78.8759 9.80408 77.2933 7.59984C77.0933 7.31984 77.2533 6.91984 77.5867 6.8665C78.36 6.73317 79.1733 6.6665 80 6.6665C83.2267 6.6665 86.2 7.81317 88.5067 9.73317C88.7067 9.87984 88.7333 10.1732 88.5733 10.3732ZM78.68 15.7705C73.6267 17.0372 69.16 17.2105 67.5333 17.2372C67.2267 17.2372 67 16.9438 67.08 16.6505C68.04 12.9172 70.6 9.79717 73.9733 8.07717C74.1733 7.9705 74.4267 8.03717 74.56 8.22384C75.2533 9.18384 77.1333 11.8905 78.9733 15.0772C79.12 15.3438 78.9867 15.6905 78.68 15.7705ZM81.2133 19.4492C81.3333 19.7025 81.1867 20.0092 80.92 20.1025C75.0133 22.0092 71.48 26.7425 70.4133 28.3692C70.24 28.6358 69.8667 28.6492 69.6667 28.4092C67.8 26.1158 66.6667 23.4892 66.6667 20.3025V20.0625C66.6667 19.7958 66.88 19.5825 67.1467 19.5958C68.8267 19.6625 74.3067 19.4358 80 17.7958C80.2133 17.7292 80.4533 17.8358 80.5467 18.0358C80.7733 18.5025 81 18.9692 81.2133 19.4492Z" fill="#1E1E1E"/>
<rect x="120" width="40" height="40" fill="#D9D9D9"/>
<path d="M153.333 25.5865C153.333 30.4398 150.44 33.3332 145.587 33.3332H144C143.267 33.3332 142.667 32.7332 142.667 31.9998V24.3065C142.667 23.9465 142.96 23.6398 143.32 23.6398L145.667 23.5998C145.853 23.5865 146.013 23.4532 146.053 23.2665L146.52 20.7198C146.529 20.6621 146.525 20.6031 146.51 20.5469C146.494 20.4907 146.466 20.4386 146.428 20.3942C146.39 20.3499 146.342 20.3143 146.289 20.2899C146.236 20.2656 146.178 20.253 146.12 20.2532L143.28 20.2932C142.907 20.2932 142.613 19.9998 142.6 19.6398L142.547 16.3732C142.547 16.1598 142.72 15.9732 142.947 15.9732L146.147 15.9198C146.373 15.9198 146.547 15.7465 146.547 15.5198L146.493 12.3198C146.493 12.0932 146.32 11.9198 146.093 11.9198L142.493 11.9732C141.968 11.9812 141.449 12.0928 140.967 12.3016C140.484 12.5104 140.048 12.8124 139.683 13.1902C139.317 13.568 139.03 14.0141 138.837 14.5031C138.645 14.9921 138.55 15.5143 138.56 16.0398L138.627 19.7065C138.64 20.0798 138.347 20.3732 137.973 20.3865L136.373 20.4132C136.147 20.4132 135.973 20.5865 135.973 20.8132L136.013 23.3465C136.013 23.5732 136.187 23.7465 136.413 23.7465L138.013 23.7198C138.387 23.7198 138.68 24.0132 138.693 24.3732L138.813 31.9732C138.827 32.7198 138.227 33.3332 137.48 33.3332H134.413C129.56 33.3332 126.667 30.4398 126.667 25.5732V14.4132C126.667 9.55984 129.56 6.6665 134.413 6.6665H145.587C150.44 6.6665 153.333 9.55984 153.333 14.4132V25.5865Z" fill="#1E1E1E"/>
<rect x="180" width="40" height="40" fill="#D9D9D9"/>
<path d="M196.279 29.3333H188.837C187.647 29.3333 186.667 28.319 186.667 27.0864V14.2469C186.667 13.0143 187.647 12 188.837 12H195.039C197.606 12 199.69 14.157 199.69 16.8148C199.69 18.1373 199.169 19.3314 198.338 20.2044C199.876 20.9877 200.93 22.6311 200.93 24.5185C200.93 27.1763 198.847 29.3333 196.279 29.3333ZM188.527 21.6296V27.0864C188.527 27.2662 188.664 27.4074 188.837 27.4074H196.279C197.817 27.4074 199.07 26.1106 199.07 24.5185C199.07 22.9264 197.817 21.6296 196.279 21.6296H188.527ZM188.527 19.7037H195.039C196.577 19.7037 197.829 18.4069 197.829 16.8148C197.829 15.2227 196.577 13.9259 195.039 13.9259H188.837C188.664 13.9259 188.527 14.0672 188.527 14.2469V19.7037ZM209.513 29.3333H207.442C204.192 29.3333 201.55 26.5985 201.55 23.2346C201.55 19.8706 204.192 17.1358 207.442 17.1358C210.691 17.1358 213.333 19.8706 213.333 23.2346C213.333 23.761 212.912 24.1975 212.403 24.1975H203.522C203.944 26.0336 205.544 27.4074 207.442 27.4074H209.513C210.022 27.4074 210.443 27.844 210.443 28.3704C210.443 28.8968 210.022 29.3333 209.513 29.3333ZM203.522 22.2716H211.374C211.163 21.3591 210.662 20.5464 209.951 19.9642C209.24 19.3821 208.361 19.0642 207.454 19.0617C206.546 19.064 205.666 19.3816 204.953 19.9636C204.24 20.5455 203.736 21.3582 203.522 22.2716ZM209.302 15.8519H205.581C205.073 15.8519 204.651 15.4153 204.651 14.8889C204.651 14.3625 205.073 13.9259 205.581 13.9259H209.302C209.811 13.9259 210.233 14.3625 210.233 14.8889C210.233 15.4153 209.811 15.8519 209.302 15.8519Z" fill="#1E1E1E"/>
</svg>
